<svg version="1.1" id="Layer_1" xmlns="http://www.w3.org/2000/svg" xmlns:xlink="http://www.w3.org/1999/xlink" x="0px" y="0px"
	 width="100%" viewBox="0 0 1024 480" enable-background="new 0 0 1024 480" xml:space="preserve">
<path fill="#8B4557" opacity="1.000000" stroke="none" 
	d="
M839.454224,249.072083 
	C838.515930,248.912170 838.028320,248.802429 837.538879,248.701248 
	C821.605042,245.408081 817.216614,240.144958 817.092163,223.731323 
	C816.975952,208.400848 817.025696,193.069016 817.026733,177.737778 
	C817.027344,168.905685 817.064636,160.073532 817.107056,151.241516 
	C817.140991,144.168152 816.173828,137.255127 813.223572,130.788742 
	C806.611023,116.295265 792.731934,112.744797 779.860352,122.181366 
	C770.568481,128.993530 764.634766,138.336502 760.034668,148.679871 
	C759.177063,150.608383 759.359985,152.596268 759.358704,154.578354 
	C759.342896,178.576050 759.435059,202.574203 759.302429,226.571167 
	C759.255493,235.063263 761.702026,241.957214 769.611816,246.126678 
	C770.333069,246.506897 771.065796,246.964005 771.001221,248.531647 
	C753.965088,248.531647 736.901306,248.531647 719.944641,248.531647 
	C719.452698,246.779922 720.504456,246.276428 721.324524,245.869858 
	C728.559082,242.283157 730.687988,236.018585 730.692993,228.514725 
	C730.716064,193.685287 730.663574,158.855194 730.869629,124.026695 
	C730.993347,103.122437 735.717407,83.351883 747.565613,65.826416 
	C760.290405,47.004402 777.343933,34.655640 800.497803,31.978067 
	C807.507324,31.167465 808.267212,31.790462 808.283508,38.894852 
	C808.300598,46.332581 808.287354,53.770378 808.287354,61.650005 
	C801.750671,61.103889 796.467163,58.986118 791.034973,57.629791 
	C783.585938,55.769920 776.143921,54.204292 768.412964,53.947868 
	C763.850342,53.796532 761.475708,55.724182 760.770996,59.953995 
	C760.170654,63.557640 759.451904,67.201599 759.429565,70.831688 
	C759.293152,92.995415 759.338806,115.160263 759.334900,137.324738 
	C759.334778,137.937332 759.459656,138.549973 759.630005,140.116318 
	C764.828796,133.044693 769.878845,126.968636 776.203979,122.042648 
	C788.339600,112.591507 801.715881,107.883377 817.183899,110.725357 
	C829.532166,112.994156 836.431885,121.222214 840.379517,132.448410 
	C844.124573,143.098648 845.112976,154.219376 845.221863,165.391739 
	C845.390808,182.721512 845.299438,200.054550 845.211853,217.385666 
	C845.180420,223.600113 845.540466,229.691025 848.179626,235.451157 
	C851.021423,241.653397 856.512024,243.619247 862.638062,240.570145 
	C868.579773,237.612778 871.489502,231.318787 869.870544,224.925476 
	C865.496826,207.652893 870.050537,194.803513 884.321716,184.079193 
	C893.863647,176.908661 904.962708,172.584839 915.401367,167.055405 
	C922.338135,163.380966 929.042358,159.452881 934.729492,153.883987 
	C944.601868,144.216873 943.452087,129.243927 939.873108,118.792587 
	C938.760559,115.543861 935.676636,114.307816 932.239197,114.076752 
	C920.981018,113.319992 912.052124,117.354431 905.703430,126.790977 
	C900.433838,134.623383 897.800842,143.207733 898.045166,152.708542 
	C898.213257,159.243210 898.069946,159.257278 891.394531,159.277771 
	C886.395081,159.293106 881.391479,159.151108 876.397278,159.313599 
	C872.034912,159.455521 871.229004,157.602753 872.498230,153.766586 
	C880.131287,130.696457 897.097595,118.040878 919.622864,111.905197 
	C928.218323,109.563881 937.090759,110.006096 945.887085,111.539825 
	C956.713867,113.427582 964.369141,119.377556 969.290833,129.118179 
	C974.211060,138.855988 975.970154,149.347488 976.127502,160.039017 
	C976.419312,179.866196 976.266418,199.700623 976.206299,219.531754 
	C976.191528,224.412552 976.846924,229.158829 978.234436,233.805801 
	C980.690674,242.032715 989.007263,244.471649 995.540955,238.911911 
	C999.354858,235.666428 1001.337585,231.282349 1003.141235,226.754837 
	C1003.894897,224.862854 1003.992615,222.523178 1006.192261,221.109314 
	C1006.569946,221.693970 1007.030212,222.072540 1007.012329,222.426987 
	C1006.406860,234.426773 996.211243,246.659103 984.712524,248.846802 
	C977.924500,250.138229 971.095093,249.729279 964.414490,247.883530 
	C953.712036,244.926666 950.682617,236.212372 948.757568,226.736923 
	C948.295410,224.462387 948.017578,222.150406 947.499084,218.868271 
	C944.068115,225.060257 940.664124,230.271759 936.574463,235.001984 
	C925.722473,247.553452 912.214966,252.519135 895.861267,249.311935 
	C886.370667,247.450699 879.299927,241.906754 873.813171,234.275223 
	C873.317627,234.393112 872.840759,234.366409 872.734863,234.551758 
	C865.355469,247.456772 853.823486,250.973633 839.454224,249.072083 
M911.825195,179.321732 
	C895.479126,192.827560 893.143616,211.241318 898.598694,228.028992 
	C903.301392,242.501175 916.661743,246.477844 929.034119,237.421082 
	C938.793457,230.277039 944.772461,220.210098 946.311157,208.600372 
	C949.243225,186.476654 947.875854,164.156036 947.032043,141.908340 
	C947.007507,141.262131 946.765564,140.624146 946.380127,138.864639 
	C944.897583,151.303940 938.251526,159.354477 929.566101,166.029129 
	C923.894958,170.387253 918.114746,174.603302 911.825195,179.321732 
z"/>
<path fill="#8B4557" opacity="1.000000" stroke="none" 
	d="
M121.514664,257.156982 
	C136.096085,259.667328 149.485718,263.896118 160.434647,273.735229 
	C174.875549,286.712372 178.618103,303.514343 176.780533,321.888824 
	C174.018402,349.508148 155.074661,363.087860 130.305801,369.229156 
	C118.144249,372.244537 105.681404,373.042480 93.191795,373.318878 
	C85.477287,373.489624 82.645630,375.849426 83.194130,383.590149 
	C84.243904,398.405029 83.790306,413.220428 84.014557,428.033936 
	C84.127068,435.466278 87.189697,441.158264 93.470734,445.139160 
	C94.264740,445.642426 95.347618,445.993195 95.220947,447.281738 
	C91.469627,448.540619 44.952694,448.745422 39.870857,447.523590 
	C39.468819,446.516510 40.126316,445.900604 40.827068,445.506226 
	C48.685738,441.083618 50.278805,433.657410 50.724728,425.514618 
	C51.214626,416.568665 50.917412,407.575928 53.260124,398.750458 
	C56.206673,387.650269 62.809570,379.929443 73.201347,375.290222 
	C75.926445,374.073639 78.641785,372.835144 81.408119,371.585724 
	C80.906609,369.936920 79.436836,369.771332 78.317986,369.304504 
	C59.837646,361.593628 52.563454,346.579041 51.718517,327.746887 
	C51.130203,314.634338 51.337170,301.487488 51.088425,288.357880 
	C50.866745,276.657410 51.227383,264.692902 39.177662,256.757416 
	C66.736176,256.419098 93.902061,255.037369 121.514664,257.156982 
M100.318764,368.803162 
	C110.576096,368.587891 119.462479,365.200714 126.768517,357.782501 
	C145.142288,339.126740 149.345520,307.127380 136.326553,283.658691 
	C130.450714,273.066589 122.226471,265.064087 110.235497,261.900330 
	C103.284424,260.066315 96.063934,260.324585 88.900566,260.256653 
	C85.168350,260.221344 84.038010,261.641876 83.979218,265.249786 
	C83.469383,296.533173 84.945320,327.831085 83.144142,359.109314 
	C82.699425,366.831940 85.034882,368.736053 92.878876,368.809845 
	C95.043037,368.830231 97.207542,368.813324 100.318764,368.803162 
z"/>
<path fill="#8B4557" opacity="1.000000" stroke="none" 
	d="
M95.394875,65.632202 
	C123.981575,105.798058 152.357269,145.673462 180.732956,185.548859 
	C181.153976,185.483521 181.574997,185.418182 181.996017,185.352859 
	C181.996017,182.635330 181.996460,179.917801 181.995941,177.200272 
	C181.990219,147.047211 181.886490,116.893684 182.029297,86.741333 
	C182.082413,75.522736 182.689072,64.316025 170.074142,57.822735 
	C179.848511,56.342453 189.029160,56.802074 198.029068,56.848900 
	C198.382248,58.462383 197.897644,58.954220 197.324097,59.271389 
	C188.423691,64.193184 186.300995,72.324486 186.312286,81.709122 
	C186.376251,134.853226 186.345871,187.997452 186.319229,241.141617 
	C186.318253,243.093597 186.756027,245.120285 185.173111,248.208862 
	C143.957428,190.305786 103.123505,132.939056 61.509460,74.476341 
	C61.318691,77.234932 61.121735,78.762283 61.120686,80.289772 
	C61.087296,128.934509 61.128178,177.579407 61.002449,226.223877 
	C60.980911,234.556625 63.668667,241.165451 70.840691,245.706482 
	C71.640060,246.212631 72.628708,246.689850 72.463081,248.573334 
	C63.420521,249.536407 54.310734,249.233765 45.326176,248.786575 
	C44.747509,246.581680 46.106800,246.186646 47.007656,245.635544 
	C53.798126,241.481598 56.618664,235.081055 56.632656,227.513718 
	C56.727848,176.035660 56.672325,124.557350 56.726700,73.079178 
	C56.729523,70.404099 55.875217,68.245819 54.303112,66.197868 
	C52.302185,63.591293 50.395973,60.912010 48.524265,58.366531 
	C50.118233,55.979290 52.134521,56.769482 53.818069,56.753120 
	C62.480236,56.668919 71.206451,57.363602 79.788132,56.529449 
	C87.543297,55.775631 92.029419,58.951965 95.394875,65.632202 
z"/>
<path fill="#8B4557" opacity="1.000000" stroke="none" 
	d="
M563.216309,129.962952 
	C568.672485,141.058090 569.783447,152.649475 569.849365,164.359100 
	C569.955383,183.173370 569.729431,201.989319 569.741516,220.804489 
	C569.744080,224.795410 570.295776,228.755386 571.288513,232.659058 
	C572.443848,237.202347 574.689209,240.719177 579.582642,241.579102 
	C584.492737,242.441940 588.396973,240.413574 591.328125,236.533157 
	C594.167847,232.773819 595.960327,228.459625 597.582031,224.071182 
	C597.972229,223.015228 598.164124,221.799026 599.418274,221.287430 
	C602.030334,229.874512 592.056519,244.660492 581.173218,248.184082 
	C574.824951,250.239410 568.293945,249.698395 561.856628,248.777939 
	C555.360840,247.849091 549.760864,245.208099 546.291931,239.157623 
	C543.001099,233.417740 542.171143,226.965073 540.866577,219.257141 
	C536.936523,225.857086 533.543762,231.269562 529.211060,236.012970 
	C518.435547,247.809784 505.263641,252.568649 489.556885,249.407852 
	C475.605255,246.600250 466.702698,237.625626 463.094910,224.322311 
	C459.380737,210.626602 461.825928,197.853226 473.053497,187.864731 
	C478.695526,182.845337 485.071045,178.961029 491.759155,175.498489 
	C501.808014,170.296051 512.253540,165.843857 521.651550,159.404083 
	C537.446655,148.580780 537.487610,134.836761 533.546936,119.662178 
	C532.665100,116.266396 530.073792,114.522972 526.543701,114.208046 
	C514.949097,113.173637 505.565735,117.005280 499.065857,126.890320 
	C494.006165,134.585114 491.447815,143.105316 491.341034,152.330627 
	C491.260590,159.282425 491.278137,159.286606 484.106262,159.293518 
	C478.003418,159.299408 471.900543,159.294739 465.308746,159.294739 
	C466.151672,150.347549 469.275482,143.177048 474.219025,137.079605 
	C490.935059,116.461876 512.269226,107.062973 538.988770,111.463211 
	C550.213806,113.311775 558.162720,119.421417 563.216309,129.962952 
M510.141205,175.680649 
	C490.788635,189.938080 484.683167,208.509659 492.469666,229.433777 
	C496.138519,239.292953 502.207397,243.035385 512.578674,241.600754 
	C517.509155,240.918747 521.768555,238.597931 525.288025,235.129562 
	C535.072327,225.487335 540.757019,213.897339 540.908264,200.024246 
	C541.097168,182.697922 541.004883,165.368225 540.968628,148.040115 
	C540.962891,145.298355 540.613220,142.557327 540.422546,139.815964 
	C538.809753,147.562881 535.356140,154.019150 530.186279,159.663422 
	C524.499573,165.872086 517.167847,170.009506 510.141205,175.680649 
z"/>
<path fill="#8B4557" opacity="1.000000" stroke="none" 
	d="
M222.982468,230.776184 
	C217.793930,218.190491 217.361984,206.044281 224.642212,194.577011 
	C229.397797,187.086380 236.846420,182.361618 244.462128,178.172516 
	C251.750992,174.163208 259.278015,170.586960 266.698273,166.816345 
	C272.053162,164.095261 277.210297,161.062347 281.928436,157.313599 
	C295.537323,146.500748 294.871796,133.059967 291.022095,119.370804 
	C290.093842,116.070023 287.316772,114.456741 283.790405,114.166023 
	C271.450439,113.148682 262.047943,117.918167 255.662384,128.469711 
	C250.982574,136.202682 248.472702,144.627090 249.214493,153.703354 
	C249.589111,158.287186 247.827499,159.530182 243.554108,159.366348 
	C236.797470,159.107300 230.023590,159.297363 222.870728,159.297363 
	C223.049194,152.528793 225.421402,147.412140 228.134903,142.491531 
	C241.278168,118.658020 272.919525,105.321915 299.400269,112.027046 
	C313.429321,115.579315 320.102448,125.708199 324.017456,138.387268 
	C326.334198,145.890228 327.188995,153.687332 327.185303,161.562851 
	C327.176270,180.882431 327.230804,200.202087 327.192688,219.521561 
	C327.183075,224.383362 327.620697,229.161057 329.130554,233.789383 
	C331.925537,242.357376 340.787659,244.490341 347.278107,238.186157 
	C350.846832,234.719864 352.613037,230.210281 354.490479,225.752029 
	C355.177704,224.120071 355.211456,222.134750 357.561462,221.210632 
	C357.595490,228.211456 354.851288,234.349350 350.552917,239.815109 
	C341.671265,251.108917 329.496521,250.708786 317.228027,248.265823 
	C305.417114,245.914001 301.900757,240.089874 298.396118,219.442535 
	C295.918945,223.283035 293.773071,226.958313 291.294098,230.393188 
	C280.310913,245.611496 265.947388,253.162796 246.865570,249.346146 
	C236.031998,247.179245 228.322021,240.747971 222.982468,230.776184 
M256.513641,239.131729 
	C264.282196,243.300781 272.003174,242.994919 279.125122,237.985214 
	C289.589569,230.624252 296.086304,220.089035 297.540497,207.691010 
	C300.206329,184.962784 298.873596,162.089691 297.677704,139.244629 
	C295.890961,151.127441 289.326599,159.728668 279.954987,166.577652 
	C274.312897,170.701050 268.657745,174.820557 263.208466,179.191147 
	C249.917374,189.851196 245.087662,203.959396 247.643265,220.479446 
	C248.671356,227.125336 250.195282,233.979813 256.513641,239.131729 
z"/>
<path fill="#8B4557" opacity="1.000000" stroke="none" 
	d="
M798.020569,316.902100 
	C812.587646,309.637207 827.402954,307.421783 842.925476,311.554474 
	C852.522156,314.109467 859.320801,319.954865 863.525879,329.012024 
	C867.948547,338.537842 870.142212,348.542114 870.218262,358.965851 
	C870.362976,378.790131 870.327271,398.616272 870.254333,418.441223 
	C870.237610,422.981323 870.978455,427.356384 871.912842,431.761749 
	C872.851074,436.184753 874.800842,439.672424 879.520447,440.611816 
	C884.527283,441.608521 888.730286,439.992462 891.873535,435.898773 
	C894.862000,432.006561 896.468201,427.435455 898.192017,422.920380 
	C898.533081,422.027039 899.088928,421.215698 899.515930,420.421997 
	C901.556213,420.762299 901.114807,422.103729 900.957886,423.168152 
	C897.642334,445.657501 869.673706,457.239716 851.419800,443.646149 
	C845.276306,439.071136 844.130066,432.004059 842.716858,425.143250 
	C842.284424,423.043762 842.049011,420.903717 841.509277,417.387787 
	C837.834290,425.113739 833.694092,431.041931 828.699646,436.382904 
	C816.003723,449.959930 796.922668,453.540497 780.736267,445.275818 
	C759.411133,434.387360 755.684204,402.980621 773.669800,387.197815 
	C783.993286,378.138794 796.450256,372.866180 808.442383,366.757019 
	C814.401245,363.721405 820.111206,360.421814 825.389160,356.269806 
	C832.602295,350.595337 836.250854,343.409485 835.926941,334.227966 
	C835.838806,331.731262 835.881470,329.220856 835.628967,326.740662 
	C834.346863,314.149292 829.199829,310.714539 816.753296,313.846039 
	C804.793945,316.854950 798.543335,325.521912 794.559570,336.270813 
	C792.362000,342.200317 790.852539,348.364594 791.881226,354.821716 
	C792.252625,357.152588 791.245850,358.327118 788.922974,358.338898 
	C782.262939,358.372650 775.601501,358.460510 768.943115,358.360687 
	C764.750122,358.297852 765.760376,355.553497 766.491028,353.057922 
	C770.678040,338.756836 779.854248,328.344971 792.064209,320.320801 
	C793.870483,319.133789 795.808777,318.147583 798.020569,316.902100 
M831.564392,358.023407 
	C828.861755,360.484131 826.285950,363.104462 823.430481,365.372711 
	C817.178284,370.339386 810.529419,374.832703 804.498596,380.046814 
	C789.666077,392.870880 785.561523,414.434021 794.162537,431.964325 
	C796.359619,436.442383 799.614929,439.589966 804.558716,440.465057 
	C812.137634,441.806580 819.261902,440.552521 825.083496,435.207947 
	C835.512329,425.633728 841.196594,413.552002 841.596008,399.503479 
	C842.083130,382.370148 841.719604,365.212463 841.712097,348.065308 
	C841.710754,345.013641 841.722473,341.950623 840.323669,338.922821 
	C837.822693,349.759216 837.687683,350.059418 831.564392,358.023407 
z"/>
<path fill="#8B4557" opacity="1.000000" stroke="none" 
	d="
M233.650146,404.420776 
	C236.334366,414.016632 239.563538,422.873352 246.006302,430.242920 
	C251.495407,436.521698 258.305237,439.605133 266.623810,439.789703 
	C291.637451,440.344574 307.663361,426.806854 319.270569,406.345825 
	C320.991608,403.311981 322.326202,400.056488 323.792877,396.881958 
	C324.461639,395.434448 325.180084,394.067352 327.100677,394.705444 
	C329.192749,395.400513 328.637665,397.044220 328.110809,398.435638 
	C317.543457,426.343475 292.938477,451.340057 258.042725,449.311005 
	C228.224579,447.577179 204.759689,427.385040 198.058624,396.788483 
	C193.188065,374.549805 195.907120,353.412781 209.014359,334.274780 
	C225.624176,310.022705 260.272827,302.004547 283.760651,317.206940 
	C296.795013,325.643402 303.875793,338.127319 306.229004,353.422607 
	C307.000488,358.437042 304.135193,358.911865 300.358429,358.874847 
	C283.390778,358.708435 266.422577,358.603363 249.454483,358.481537 
	C244.623657,358.446838 239.784668,358.592529 234.964386,358.353638 
	C231.196106,358.166870 229.991577,359.863251 229.936157,363.371887 
	C229.720047,377.057190 230.139481,390.672638 233.650146,404.420776 
M250.864258,314.098755 
	C238.997009,317.114838 230.553757,342.861237 231.497421,354.638489 
	C246.346878,354.638489 261.256836,354.675476 276.166229,354.603577 
	C278.776672,354.591003 278.764404,352.432861 278.668732,350.573883 
	C278.267914,342.787109 277.861816,335.006378 275.252655,327.532043 
	C270.904449,315.075867 264.818512,311.502289 250.864258,314.098755 
z"/>
<path fill="#8B4557" opacity="1.000000" stroke="none" 
	d="
M492.798828,430.191345 
	C498.708099,437.196075 506.115631,439.767456 514.731934,439.805603 
	C539.593323,439.915741 555.016968,425.803009 566.436218,405.650787 
	C568.072449,402.763245 569.331543,399.659760 570.723389,396.636932 
	C571.416870,395.130768 572.311401,393.917480 574.134155,394.788055 
	C575.720276,395.545624 575.367432,397.046875 574.871277,398.282349 
	C565.430054,421.789703 550.722290,440.573822 525.208557,447.064911 
	C499.432800,453.622681 476.511261,447.067627 459.003265,426.406097 
	C445.109100,410.009338 441.054993,390.310455 443.047211,369.276245 
	C445.017059,348.478607 453.528870,330.966248 471.279449,319.293823 
	C495.145020,303.600372 529.470276,304.873108 546.538086,334.245026 
	C549.919128,340.063385 551.819885,346.395142 553.008545,353.003418 
	C553.707581,356.889465 552.588684,358.487518 548.455505,358.460846 
	C533.639648,358.365326 518.822266,358.520844 504.005493,358.545074 
	C496.365204,358.557556 488.724823,358.490509 481.084473,358.465179 
	C478.134338,358.455383 476.390594,359.617584 476.349274,362.877625 
	C476.113739,381.461273 477.639435,399.763306 484.797211,417.189606 
	C486.707611,421.840637 489.183655,426.161133 492.798828,430.191345 
M524.805786,342.383057 
	C524.770874,336.306122 523.482605,330.466064 521.104126,324.914246 
	C517.062256,315.479767 511.019897,312.026520 500.924622,313.329132 
	C494.221741,314.194031 489.965698,318.543091 486.611816,323.972809 
	C482.064575,331.334442 480.102448,339.602325 478.433807,347.945526 
	C477.105225,354.588440 477.175018,354.654327 483.865845,354.681946 
	C494.365051,354.725281 504.864563,354.682617 515.363953,354.691162 
	C526.845581,354.700500 526.845581,354.707825 524.805786,342.383057 
z"/>
<path fill="#8B4557" opacity="1.000000" stroke="none" 
	d="
M675.124207,230.913055 
	C677.393250,215.453217 674.905640,209.852753 661.814514,202.632812 
	C653.074036,197.812332 643.981995,193.629547 635.048035,189.159851 
	C628.168091,185.717728 621.872559,181.467026 615.908508,176.556305 
	C598.038635,161.842682 596.743835,125.014755 628.872559,113.561417 
	C646.032593,107.444168 662.723633,109.925407 679.384521,114.604080 
	C695.446716,119.114586 695.376709,119.411713 695.336487,135.972488 
	C695.326355,140.131210 695.209717,144.289902 695.101074,148.447540 
	C695.094849,148.685577 694.717834,148.913925 694.456909,149.211136 
	C692.372437,148.772186 691.911011,146.777954 690.930847,145.364014 
	C684.932190,136.710876 678.625488,128.334854 670.216736,121.813744 
	C660.411438,114.209595 649.703247,111.004227 637.500000,115.223984 
	C628.751953,118.248962 624.692932,124.941879 623.452942,133.598267 
	C622.333801,141.410980 626.669250,146.458435 632.691284,150.524628 
	C642.960571,157.458649 654.504456,161.969116 665.360535,167.786774 
	C674.039368,172.437653 682.585754,177.216614 689.828735,184.058273 
	C701.384216,194.973434 704.836243,208.184174 700.628967,223.232956 
	C696.586548,237.692398 685.413635,244.914932 671.804382,248.001663 
	C649.252869,253.116623 627.136963,249.629028 605.433533,242.582916 
	C603.348511,241.906021 601.796326,240.902252 601.791138,238.476257 
	C601.772278,229.648422 601.757751,220.820511 601.785706,211.992783 
	C601.786926,211.603149 602.221252,211.214890 602.576538,210.620850 
	C604.815979,211.843796 605.169250,214.147568 606.121338,215.947021 
	C616.748474,236.031509 635.572876,246.624878 657.290710,244.653641 
	C667.352051,243.740417 672.263611,240.041916 675.124207,230.913055 
z"/>
<path fill="#8B4557" opacity="1.000000" stroke="none" 
	d="
M347.013458,448.266785 
	C342.296509,447.997650 337.998383,448.852875 333.809387,447.736725 
	C333.873291,447.078552 333.804077,446.548584 333.948395,446.482086 
	C344.822662,441.470856 345.609833,431.683228 345.622284,421.631287 
	C345.665100,386.983093 345.631958,352.334839 345.625854,317.686584 
	C345.624603,310.503052 346.397217,309.830872 353.339203,311.008881 
	C365.681122,313.103210 371.336700,319.044373 373.214508,331.885010 
	C373.525116,334.009033 373.842194,336.132172 374.289154,339.154205 
	C382.204163,328.646576 391.824280,321.472107 402.946686,316.267883 
	C409.155396,313.362762 415.578247,311.143372 422.446075,310.374054 
	C424.643158,310.127930 426.882843,310.254730 426.937714,312.916565 
	C427.124359,321.969421 427.009094,331.028503 427.009094,340.060699 
	C423.871521,340.385712 422.708130,338.453949 421.191895,337.328461 
	C408.253540,327.724121 387.041595,330.426270 376.923584,343.020813 
	C374.957642,345.467926 374.161652,348.236725 374.157776,351.363525 
	C374.125366,377.182678 374.115509,403.002258 373.930328,428.820496 
	C373.882751,435.451813 376.553101,440.343506 381.900940,443.988159 
	C383.252472,444.909180 384.583191,445.860748 385.923431,446.798279 
	C385.880280,447.287537 385.837097,447.776764 385.793945,448.266022 
	C373.032623,448.266022 360.271271,448.266022 347.013458,448.266785 
z"/>
<path fill="#8B4557" opacity="1.000000" stroke="none" 
	d="
M733.056763,311.769745 
	C745.152832,308.875183 745.201843,308.900513 745.190430,320.734497 
	C745.184631,326.731506 745.120667,332.728668 745.038147,338.725098 
	C745.032227,339.153137 744.656799,339.576080 744.425415,340.059387 
	C741.862061,340.236389 740.551331,338.217590 738.889771,337.022247 
	C725.949768,327.713135 704.935974,330.535400 695.010498,342.970703 
	C692.934753,345.571350 692.137878,348.516174 692.135132,351.801117 
	C692.113403,377.630798 692.095703,403.460632 691.976379,429.289978 
	C691.949585,435.096222 694.180969,439.605072 698.756592,443.040771 
	C700.462646,444.321838 702.205750,445.553680 705.109009,447.663208 
	C686.446899,447.663208 669.127747,447.663208 651.753296,447.663208 
	C651.822693,447.083130 651.765198,446.553314 651.910828,446.489838 
	C664.387451,441.053345 663.467529,429.704742 663.536072,419.183563 
	C663.757507,385.189453 663.622253,351.193054 663.636780,317.197540 
	C663.639587,310.688171 664.479248,309.981934 670.878662,310.909882 
	C683.490662,312.738678 689.233948,318.643433 691.258728,331.859772 
	C691.584717,333.987671 691.918945,336.114288 692.388245,339.135986 
	C703.096680,325.214264 716.720581,316.772369 733.056763,311.769745 
z"/>
<path fill="#8B4557" opacity="1.000000" stroke="none" 
	d="
M408.307465,106.460495 
	C407.746368,110.401779 409.414093,111.649979 412.772156,111.619728 
	C421.099762,111.544708 429.429413,111.567940 437.756653,111.673904 
	C439.381653,111.694588 441.936432,110.906891 441.987885,113.724907 
	C442.036621,116.393333 439.604034,116.088440 437.867462,116.102440 
	C429.705994,116.168236 421.540009,116.273468 413.383240,116.065582 
	C409.463867,115.965683 408.219360,117.378845 408.235748,121.288231 
	C408.366272,152.437149 408.228241,183.587265 408.391235,214.735870 
	C408.424225,221.039734 409.292206,227.356415 412.205536,233.157242 
	C416.453461,241.615616 425.193146,243.556610 432.595154,237.537933 
	C435.639069,235.062881 438.420746,232.265289 441.411438,229.532425 
	C441.836517,229.722458 442.018036,230.350845 441.645996,230.981003 
	C435.502991,241.386078 427.578888,249.062256 414.486481,249.260864 
	C401.056335,249.464569 390.979889,244.318161 385.090210,231.830368 
	C381.317535,223.831223 379.793121,215.368637 379.765045,206.645065 
	C379.675476,178.827423 379.737610,151.009308 379.732056,123.191376 
	C379.730652,116.202667 379.714996,116.206306 372.522705,116.151794 
	C370.024689,116.132866 367.523865,116.154488 365.030060,116.036377 
	C363.473907,115.962669 361.893250,115.559898 361.946075,113.555710 
	C361.994476,111.718208 363.573151,111.775398 364.879700,111.578758 
	C373.137177,110.336052 381.110931,108.321388 388.763153,104.733505 
	C395.997528,101.341545 402.083832,96.761292 407.511353,89.266167 
	C408.866455,95.639359 408.041962,100.879372 408.307465,106.460495 
z"/>
<path fill="#8B4557" opacity="1.000000" stroke="none" 
	d="
M648.170532,439.100952 
	C639.603821,448.833038 627.334167,451.599426 614.175842,447.017700 
	C603.348999,443.247803 596.869568,434.487305 596.779846,421.661224 
	C596.531738,386.194031 596.723389,350.723969 596.623108,315.255371 
	C596.612000,311.313049 598.264832,310.368347 601.802185,310.831421 
	C614.890564,312.544891 623.896912,322.708923 624.386230,335.986420 
	C625.392212,363.283844 625.023926,390.591187 625.186523,417.894379 
	C625.216492,422.924591 625.698914,427.824036 627.137329,432.662048 
	C629.804932,441.634277 638.624634,443.909607 645.301392,437.251221 
	C648.962280,433.600372 650.338074,428.702972 652.352661,424.156097 
	C652.945129,422.818878 653.092773,421.217987 654.533936,420.357361 
	C656.590149,424.112488 654.661255,429.872406 648.170532,439.100952 
z"/>
<path fill="#8B4557" opacity="1.000000" stroke="none" 
	d="
M594.203491,288.387939 
	C591.630249,281.465546 592.663147,275.435791 597.581482,270.524780 
	C602.607422,265.506317 608.992737,264.527283 615.638855,266.373352 
	C622.613953,268.310883 626.846008,274.216766 627.153198,281.609009 
	C627.426514,288.184967 622.944702,295.027008 616.862427,297.319183 
	C609.722107,300.010040 601.548401,298.090485 596.787903,292.506042 
	C595.830505,291.382935 595.169312,290.007294 594.203491,288.387939 
z"/>
</svg>