<svg version="1.1" id="Layer_1" xmlns="http://www.w3.org/2000/svg" xmlns:xlink="http://www.w3.org/1999/xlink" x="0px" y="0px"
	 width="100%" viewBox="0 0 448 784" enable-background="new 0 0 448 784" xml:space="preserve">
<path fill="#4F5543" opacity="1.000000" stroke="none" 
	d="
M42.973637,194.983307 
	C51.493301,194.836395 59.227234,198.197891 67.129654,200.611786 
	C89.798935,207.536377 111.367020,217.292633 133.020538,226.801331 
	C143.247940,231.292465 153.869247,234.706451 164.315445,238.602921 
	C187.051331,247.083511 204.255066,262.884857 219.336090,281.280670 
	C234.921417,300.291687 245.509567,322.171967 255.233200,344.530579 
	C260.196198,355.942566 265.203644,367.335968 271.265564,378.265289 
	C265.239136,349.676697 260.030396,320.916412 251.209045,293.012238 
	C244.341614,271.288849 237.281204,249.626419 230.416809,227.902069 
	C227.532730,218.774673 220.982971,213.161850 212.837708,209.124924 
	C207.174850,206.318298 201.396149,203.687561 195.499283,201.420166 
	C151.788849,184.613266 125.045090,152.056076 109.740631,108.991348 
	C101.592178,86.062660 97.506691,62.000275 90.701515,38.691055 
	C88.557083,31.345892 86.034027,24.111437 83.699333,16.821487 
	C83.312637,15.614057 82.450317,14.437098 83.477402,12.557390 
	C89.042328,14.104344 93.565025,17.379004 97.762306,21.066322 
	C112.418510,33.941841 127.679314,46.026474 143.682541,57.195911 
	C158.764496,67.722343 172.707153,79.548790 184.264069,93.993538 
	C200.614273,114.429367 210.996964,137.616196 216.085587,163.206451 
	C221.229614,189.075394 229.141190,214.113007 238.488663,238.725647 
	C248.131378,264.115662 255.776901,290.138214 263.185303,316.238159 
	C263.547028,317.512573 263.948975,318.775574 264.595947,320.916779 
	C269.405853,307.167603 276.712219,294.895294 275.565552,280.428192 
	C274.950531,272.668671 272.620117,265.005890 272.828094,257.207001 
	C273.324371,238.602722 277.090820,220.449203 283.717834,203.164505 
	C299.022064,163.247696 319.833771,126.605186 351.518372,97.173950 
	C366.435913,83.317345 384.056824,73.496330 403.084991,66.288399 
	C405.311737,65.444893 407.933533,63.814705 410.147583,65.894585 
	C412.525024,68.127991 411.789642,71.273521 410.948761,73.900085 
	C409.124115,79.599701 407.258636,85.338486 404.750458,90.755974 
	C399.793701,101.462395 397.841187,112.778381 398.481903,124.313141 
	C399.314575,139.304520 396.652344,153.760254 393.902069,168.307205 
	C392.346741,176.533615 389.947510,184.481003 386.815491,192.189529 
	C384.709839,197.372086 384.906403,202.197693 387.355499,207.100464 
	C390.704865,213.805344 394.007568,220.533569 397.326843,227.253464 
	C402.312714,237.347412 404.287842,248.349075 407.184875,259.101074 
	C410.951233,273.079315 415.500549,286.844849 420.891510,300.301697 
	C430.110718,323.314453 431.552124,346.801758 425.370331,370.782532 
	C418.947876,395.696899 411.957855,420.415405 394.982605,440.684723 
	C382.437225,455.664551 368.182495,468.937103 353.123596,481.384796 
	C342.960175,489.785828 332.577850,497.800323 321.063934,504.315826 
	C316.317993,507.001404 312.713440,511.048676 310.970886,516.322571 
	C306.533081,529.753723 301.972900,543.159424 300.921875,557.435730 
	C299.989777,570.096680 303.070679,582.238953 305.876434,594.341980 
	C314.909760,633.308777 328.144897,671.002747 341.152618,708.756714 
	C348.202881,729.219421 354.794189,749.796204 356.983185,771.484497 
	C357.214264,773.774414 357.523590,776.093628 355.348511,778.148071 
	C351.965485,774.072510 351.836792,769.172241 351.296906,764.489807 
	C349.106140,745.490051 342.919495,727.570129 336.919952,709.564026 
	C328.079895,683.032898 319.541748,656.401184 310.869659,629.814148 
	C308.620361,622.918274 307.956329,622.447510 300.541168,622.336487 
	C294.832214,622.251099 289.229736,621.267273 283.917145,619.315308 
	C251.710571,607.481995 219.629623,595.328430 188.865417,580.003113 
	C161.687759,566.464478 139.496216,547.499207 123.857536,521.128540 
	C116.719688,509.092346 109.040802,497.335449 98.618378,487.740662 
	C85.868622,476.003235 70.048347,470.335236 53.919735,465.280151 
	C52.123035,464.717010 49.904366,464.784546 48.515495,462.273285 
	C56.312912,458.494904 64.485405,456.402954 72.838379,455.368439 
	C88.486206,453.430450 103.786438,454.340637 117.783585,462.794678 
	C121.228378,464.875305 124.396904,467.280304 127.148102,470.225861 
	C133.582901,477.115143 141.537994,480.457489 150.904999,479.518799 
	C177.193054,476.884430 199.588562,486.112976 219.936813,501.745239 
	C236.803589,514.702881 249.549179,531.385437 261.848114,548.449463 
	C276.568085,568.872437 290.087921,590.085999 303.270325,611.520447 
	C304.113983,612.892212 305.077393,614.190308 306.731140,615.240784 
	C304.883209,605.687561 303.192139,596.100830 301.155273,586.588013 
	C296.656494,565.577698 294.388184,544.244934 291.721466,522.969849 
	C289.096161,502.025269 286.671783,481.055420 284.014648,460.114990 
	C281.671722,441.650574 279.033142,423.223389 276.739166,404.753204 
	C276.127045,399.824402 274.619629,396.012421 269.940643,393.505463 
	C264.341431,390.505432 258.844666,387.262726 252.516647,386.233856 
	C235.708588,383.501038 219.745529,377.480499 203.191010,373.803131 
	C191.991745,371.315369 180.603790,369.542786 170.148468,364.469086 
	C151.652695,355.493500 137.680435,341.246735 125.726524,325.040741 
	C112.044037,306.491364 101.074852,286.297302 91.683815,265.230377 
	C79.531136,237.968231 61.520721,215.503448 36.490978,198.918900 
	C34.720760,197.745926 32.562931,196.905136 32.276482,193.875763 
	C35.752884,191.645752 39.096519,193.687744 42.490097,194.790405 
	C42.059212,196.754242 42.007290,196.829910 43.867901,198.106689 
	C62.648918,210.994476 77.241272,227.580643 87.648857,247.819687 
	C92.368690,256.998077 96.837547,266.305145 101.486267,275.520569 
	C113.905693,300.140228 128.077774,323.520721 147.254944,343.679382 
	C159.260284,356.299133 173.157013,364.622833 190.353561,368.028168 
	C211.056427,372.127838 231.597763,377.042450 252.212479,381.588654 
	C259.138275,383.116058 265.550110,386.137482 272.441620,388.999207 
	C271.507233,384.606476 269.905334,381.189606 267.999115,377.852173 
	C261.556976,366.573059 255.807785,354.946442 250.183243,343.231934 
	C241.690048,325.542816 234.312943,307.245605 223.245377,290.885468 
	C207.994598,268.341644 188.626846,250.801086 162.093689,242.732590 
	C145.151123,237.580536 128.703873,231.302765 113.007996,223.191238 
	C91.775017,212.218170 69.576355,203.844040 46.637024,197.306412 
	C45.201199,196.897217 43.715946,196.511383 42.973637,194.983307 
M306.625732,161.077255 
	C300.005341,172.862411 294.403168,185.118225 289.962494,197.880524 
	C282.432770,219.520706 277.130646,241.666702 277.489410,264.708984 
	C277.666534,276.085052 280.781555,287.415894 276.921539,299.597412 
	C280.847961,298.127258 282.957184,296.089905 285.104279,294.104187 
	C290.242035,289.352692 295.158417,284.081604 302.020752,281.972778 
	C313.973999,278.299561 323.462097,271.005707 332.812775,263.071289 
	C370.887604,230.763199 388.367218,188.171280 393.395966,139.935349 
	C395.751953,117.336731 397.705536,94.923843 406.669922,73.760803 
	C407.281921,72.315987 408.425842,70.649513 406.801727,69.154121 
	C405.363464,67.829819 403.663757,68.385803 402.084869,68.951363 
	C400.678436,69.455116 399.296967,70.045326 397.946503,70.686028 
	C378.682892,79.825294 361.172821,91.070900 347.017273,107.596115 
	C332.585358,124.443962 317.937439,141.003510 306.625732,161.077255 
M335.788391,464.192108 
	C329.616913,477.243896 323.154938,490.147339 315.068970,503.853485 
	C323.282196,500.013702 329.441498,495.548401 335.416779,490.903900 
	C352.959839,477.267975 367.868164,460.772461 384.008698,445.613892 
	C389.576630,440.384674 395.337860,435.142456 399.341003,428.549835 
	C413.329803,405.512146 420.582886,380.105591 423.470917,353.604828 
	C425.981873,330.564240 421.511749,308.272125 413.180328,286.627258 
	C408.759827,275.142883 403.231964,264.019897 400.333344,252.004852 
	C398.068054,242.615021 395.649139,233.285538 392.553619,224.144882 
	C390.338226,217.603119 387.432678,211.382538 382.869263,205.426285 
	C379.499512,211.589554 379.507782,217.643814 379.400696,223.563995 
	C378.937561,249.172638 380.356232,274.808899 376.451721,300.333099 
	C371.196106,334.689331 365.390961,368.915436 356.135406,402.455353 
	C350.433411,423.118011 346.231506,444.289764 335.788391,464.192108 
M356.890747,389.543762 
	C369.212006,333.803711 376.922028,277.525848 376.260895,220.378815 
	C373.208954,223.588654 371.362854,227.826141 369.513977,232.044647 
	C363.903625,244.845505 358.552948,257.744354 351.369537,269.817932 
	C343.036255,283.824158 333.753632,297.299194 327.238800,312.350647 
	C317.862579,334.012939 312.602173,356.800415 308.074463,379.856140 
	C304.609680,397.499451 302.160004,415.246460 307.627197,432.633636 
	C314.005371,452.918091 312.691895,473.343109 311.279510,493.906525 
	C310.998169,498.002899 310.069153,502.054779 309.438782,506.127197 
	C323.340729,483.707489 335.904358,460.728027 344.857941,436.177307 
	C350.238068,421.425110 352.871277,405.671082 356.890747,389.543762 
M189.102768,574.436829 
	C222.355438,590.560242 255.568802,606.774658 291.418457,616.605164 
	C294.528412,617.457947 297.604309,618.188599 301.571198,618.154297 
	C295.813782,612.097229 292.274628,605.493652 289.240082,598.671021 
	C285.824860,590.992432 281.050110,584.210693 276.349854,577.343811 
	C273.342529,572.950317 270.069458,568.676575 267.598877,563.988953 
	C258.375122,546.487915 245.375900,532.111206 231.132172,518.672302 
	C218.094864,506.371674 204.342133,495.243866 187.295898,488.769653 
	C171.779984,482.876648 155.784897,481.639252 138.591049,482.538940 
	C145.284943,492.887115 148.426880,503.848785 151.173401,514.993042 
	C152.964081,522.258850 155.479095,529.261902 158.909348,536.010132 
	C165.879013,549.721191 177.840576,559.606384 186.082672,572.310913 
	C186.587601,573.089233 187.660645,573.499023 189.102768,574.436829 
M308.583221,358.254425 
	C311.906769,344.460114 316.713348,331.179199 322.257050,318.134064 
	C331.259460,296.950165 342.163208,276.709991 352.690857,256.280670 
	C354.117340,253.512497 355.519165,250.712479 356.624756,248.279877 
	C348.685089,256.451538 340.521057,264.310150 332.025543,271.792419 
	C323.796936,279.039581 314.451111,284.320129 303.490936,286.449036 
	C299.919830,287.142670 296.280182,288.002777 293.209320,290.137146 
	C280.771484,298.781921 271.923492,310.011353 268.197083,324.950134 
	C267.578003,327.432007 267.379120,329.743561 267.998993,332.292603 
	C278.309814,374.691895 283.021576,417.994568 288.021210,461.201904 
	C291.051880,487.393188 294.405640,513.541687 297.430084,541.012085 
	C298.302429,532.441040 300.039886,525.338684 301.577393,518.191467 
	C305.474609,500.074615 305.866760,481.559814 307.647980,463.202362 
	C308.883148,450.472504 307.460785,438.102936 303.527679,425.893219 
	C300.803406,417.436127 299.890228,408.552032 300.924957,399.717743 
	C302.529175,386.020538 305.031708,372.454010 308.583221,358.254425 
M162.558075,117.919197 
	C137.494064,84.852692 112.430054,51.786190 87.366043,18.719685 
	C89.414322,24.853895 91.374107,30.951777 93.761208,36.746208 
	C100.847961,53.948566 105.054550,71.881439 109.264427,89.850342 
	C115.120453,114.845390 122.605789,138.906555 141.047104,158.179001 
	C155.618423,173.407043 171.630844,186.510025 190.960678,195.026932 
	C200.889069,199.401474 210.778961,203.704529 219.851074,209.708557 
	C221.042114,210.496780 222.273575,211.447754 223.929214,211.021820 
	C224.093628,209.429779 222.868378,208.601486 222.173248,207.548325 
	C210.978043,190.586716 199.692947,173.684174 188.548935,156.689102 
	C180.146652,143.875290 172.338013,130.666809 162.558075,117.919197 
M152.929886,101.597649 
	C178.147217,130.798126 197.996124,163.682663 218.835403,197.632874 
	C215.398666,189.054169 214.419235,181.334381 213.695251,173.596588 
	C211.487442,150.000000 204.497162,128.084305 191.655884,108.028938 
	C182.259491,93.353775 168.941330,82.423027 156.744003,70.412735 
	C143.479477,57.351616 126.689888,48.947575 112.469742,37.133884 
	C106.051910,31.802137 99.535431,26.589134 93.063705,21.322258 
	C112.214447,48.452736 133.741196,73.701042 152.929886,101.597649 
M77.217133,468.120544 
	C93.456200,474.931580 104.195717,487.940338 114.101784,501.607147 
	C125.924080,517.917664 136.663620,535.039185 151.460007,548.997070 
	C159.896210,556.955139 168.875977,564.133728 179.743286,568.989563 
	C162.844467,553.982239 153.813950,534.739136 147.470474,513.574646 
	C142.888611,498.287659 134.595612,484.655609 122.882744,473.518463 
	C105.409958,456.904510 78.467346,452.215515 58.255287,462.284943 
	C64.593330,464.088959 70.824242,465.113861 77.217133,468.120544 
z"/>
</svg>